<svg xmlns="http://www.w3.org/2000/svg" version="1.2" viewBox="0 0 1586 1156"><path fill="#d21241" d="M791.48 310.4v309.55l32.31 48.09c17.76 26.41 62.42 92.96 99.3 147.99 36.87 55.04 90.5 135.13 119.25 177.97 28.76 42.84 64.45 96.35 79.5 118.87l27.41 40.98 217.87.17c119.76 0 217.7-.51 217.7-1.01 0-.68-14.21-21.85-31.63-47.08-17.42-25.23-62.59-90.93-100.31-145.79-118.58-172.39-228.53-332.24-254.58-370-13.87-19.98-41.1-59.6-60.55-88.05-19.63-28.45-47.37-68.75-61.75-89.75-14.54-21-61.4-89.24-104.36-151.55-42.97-62.49-100.65-146.47-128.39-186.78C815.5 33.88 792.5.86 792.16.86c-.34 0-.68 139.36-.68 309.54Z"/><path d="M741.58 74.51c-27.91 40.47-85.76 124.63-128.73 187.11-42.97 62.31-89.82 130.56-104.37 151.55-14.38 21-42.12 61.3-61.74 89.75-19.45 28.45-46.69 68.07-60.56 88.05-26.05 37.76-136 197.62-254.58 370-37.72 54.86-82.88 120.56-100.31 145.79-17.42 25.23-31.63 46.4-31.63 47.08 0 .51 97.94 1.01 217.87 1.01l217.71-.17 27.4-40.97c28.08-42.17 106.06-158.5 215.84-322.08 34.34-51.3 74.09-110.74 88.47-132.08L793 620.61l-.34-309.88L792.15.85l-50.57 73.66Z"/></svg>