<svg xmlns="http://www.w3.org/2000/svg" version="1.2" viewBox="0 0 1550 1199"><path fill="#2b9969" d="M762.3 1.3C811.7 1 861.1-.3 910.5.2c9.1.5 18.2-.2 27.3.9-21.1 38-43 75.5-64.7 113.2C799 243.2 724.7 372.1 649.3 500.2c-9.5 3.2-19.5 2.6-29.3 3.6-64.9 1.6-129.7.9-194.6 1-26.3 44.8-51.8 90.1-78.1 135 73.8 1.4 147.6 2.7 221.4 4-36.9 64.1-74.1 127.9-110.7 192.1-28.1 48.8-56.4 97.5-84.5 146.3 28.2.2 56.4-.3 84.6.4 95.7-.3 191.4.4 287.1.2 58.5.8 117.1-.1 175.6.6 31.8 0 63.6-.1 95.3 0 36.4.6 72.7 0 109.1.5 119.8.5 239.6.8 359.4 2.9 11.4.3 22.8.6 34.2 1.5-19.9 37.3-41.1 74-61.4 111.1q-27.9 49.5-55.7 99c-461.7 0-923.3.1-1385 0 4.6-6 7.4-13 11.5-19.3 48.3-82.9 96-166.1 143.6-249.3 15.3-27.1 31-54 46-81.3-1.9-3.1-5.8-3.1-8.9-3.6-17.2-1.7-34.5-1.9-51.7-1.8-24.5-.1-48.9-.1-73.4-.1-17.5.2-35.1-.8-52.6-.6-10.3-.4-20.7-.3-31-1.1 21.8-39.1 44.4-77.7 66.5-116.5 21.9-37.8 43.5-75.8 65.5-113.6 21.8-37.6 43.2-75.4 65.4-112.8 74.5-1.6 149.1-2.7 223.7-4.2C466 417 510.5 339.7 555.1 262.5c5.6-8.8 9.9-18.3 15.3-27.2 45.1-77.7 89.8-155.6 134.8-233.4 10.7.1 21.3-.7 31.9-.3 8.4.3 16.8-.7 25.2-.3z"/><path fill="#2b9969" d="M927.8 309.1c4.8-7.7 9.1-15.7 14.5-22.9 15.8 23.6 29.9 48.4 44.7 72.7 27.1 45.4 54 91 79.9 137.1 1.3 2.4 2.4 4.8 3.5 7.3-16.2 1.1-32.4.8-48.6 1.3-41.7.5-83.4.1-125.1.2-20.3-.5-40.5-.2-60.8-1.3-6.1-.1-12.2 0-18.2-1.1 7.8-17.3 18-33.4 27-50.1 27.2-48 54.7-95.9 83.1-143.2zM737.3 641.8h412c35.2 60.1 71.1 119.8 106 180.2 4 7 8.3 13.8 12 21-145.3 0-290.7.1-436 0-28.7-.9-57.4-.3-86.1-.8-36.4-.2-72.8-.6-109.2-1.6-4.5-.2-9.1-.2-13.7-.8 14.8-25.8 30-51.3 44.8-77.2 5-8.7 10.5-17.3 15-26.3 18.5-31.5 36.6-63.1 55.2-94.5zm576.7 1.5c28.5-1.4 57.1-1.2 85.6-1.5 37.1 0 74.3-.2 111.4.4 12.8.4 25.7 0 38.5 1.3-11.1 21.2-23.2 41.9-35.3 62.6-21.6 37.6-43.6 74.9-65.9 112.1-4.2 6.6-8 13.3-12.3 19.8-1.5 2.3-4.9 2.4-6.6.3-7.1-7.4-11.6-16.8-17-25.4-22.5-38.3-44.9-76.7-67.4-115-10.3-18.2-21.4-36-31-54.6z"/></svg>