<svg xmlns="http://www.w3.org/2000/svg" version="1.2" viewBox="0 0 1558 1282"><path fill="#0033a1" fill-rule="evenodd" d="M1558.78 906.55s-582.33 15.55-777.43 31.42l-15.87-29.76a447.816 447.816 0 0 1-129.54 89.07 447.742 447.742 0 0 1-152.35 38.8 447.582 447.582 0 0 1-156.36-16.25 447.644 447.644 0 0 1-141.11-69.29c-45.3 121.03-45.3 205.69 9.92 226.53 89.62 33.73 252.97-113.43 252.97-113.43-106.81 159.06-282.73 256.95-363.75 203.05-74.07-50.27-60.51-199.08 25.14-384.61A447.777 447.777 0 0 1 2.34 599a447.724 447.724 0 0 1 96.93-287.08A447.713 447.713 0 0 1 356.8 152.3a447.707 447.707 0 0 1 300.21 40.93c21.24-17.96 42.85-35.47 64.81-52.54a2028.34 2028.34 0 0 1 66.93-49.81c22.65-16.14 45.64-31.81 68.94-47 23.29-15.19 46.9-29.9 70.81-44.11-82.01 69.78-159.72 142.86-231.48 216.61a447.467 447.467 0 0 1 114.33 109.39 447.704 447.704 0 0 1 69.15 142.32 447.736 447.736 0 0 1-25.08 310.48c316.46 126.99 702.04 100.54 703.36 127.98ZM55.83 589.74c-.04 21.42 1.67 42.81 5.12 63.95 3.45 21.15 8.62 41.97 15.47 62.27a392.235 392.235 0 0 0 25.42 58.9 392.316 392.316 0 0 0 34.68 53.98 2146.829 2146.829 0 0 1 211.45-320.17c39.93-50.07 82.08-98.33 126.32-144.64 44.24-46.3 90.54-90.6 138.74-132.77A394.2 394.2 0 0 0 421.4 197a394.257 394.257 0 0 0-184.66 61.64 394.249 394.249 0 0 0-132.64 142.5 394.266 394.266 0 0 0-48.27 188.6Zm393.84 393.87c26.93.01 53.79-2.75 80.15-8.24a392.386 392.386 0 0 0 76.77-24.43 391.99 391.99 0 0 0 70.17-39.59 392.464 392.464 0 0 0 60.61-53.08L618.65 635.38a720.157 720.157 0 0 0 88.82 68.32 719.244 719.244 0 0 0 48.13 28.77 721.333 721.333 0 0 0 50.22 24.94c20.3-43.14 32.6-89.61 36.3-137.15a393.89 393.89 0 0 0-182.79-363.87C442.73 487.22 284 723.34 205.96 899.28a392.166 392.166 0 0 0 114.73 62.77 392.59 392.59 0 0 0 128.98 21.56Z"/></svg>