<svg xmlns="http://www.w3.org/2000/svg" version="1.2" viewBox="0 0 1521 922"><path fill="#ffc400" d="M1264.12 921.12 805.03 536.35l-475.7 384.77h934.79Z"/><path fill-rule="evenodd" d="M248.4 920.86h-58.45C83.48 920.86.22 841.53.22 736.65v-542.6C.22 88.24 65.57.76 238.48.76c168.4.21 237.54 87.27 237.54 193.08v191.53H287.54V200.75c0-26.22-21.23-47.51-47.45-47.51-26.21 0-45.73 21.29-45.73 47.51V720.4c0 26.27 19.52 47.56 45.73 47.56 26.22 0 47.45-21.29 47.45-47.56V536.97h188.74v135.2c0 32.19-5.97 68.07-40.69 97.04L248.4 920.86Zm931.26-726.65h-130.29V18.57h471.44v175.64h-130.92v725.56h-55.85l-154.38-129.28V194.21Zm-77.09 531.8L805.13 476.7 519.84 707.06 673.02 19.5H936l166.57 706.51ZM855.64 432.67l-50.56-259.8-50.82 259.8h101.38Z"/></svg>