<svg xmlns="http://www.w3.org/2000/svg" version="1.2" viewBox="0 0 1750 1003"><path fill="#5a6771" fill-rule="evenodd" d="M1387.13 880.61c-95.98 0-187.5-36.09-257.74-101.62-24.49-22.87-62.82-21.53-85.63 3.07-22.81 24.55-21.42 62.99 3.07 85.86 92.71 86.54 213.56 134.2 340.3 134.2 128.03 0 249.78-48.48 342.83-136.6 24.35-23.02 25.45-61.5 2.5-85.86-23-24.41-61.34-25.51-85.68-2.5-70.48 66.69-162.67 103.45-259.65 103.45ZM1646.01 230c4.45 4.42 9.48 8.03 14.8 10.77 23.38 12.1 53.38 8.79 72.45-10.72 23.43-23.98 21.47-63.28-2.39-86.77C1636.9 50.88 1512.7 0 1381.08 0c-129.71 0-252.61 49.63-346.15 139.72-92.76 89.42-147 209.39-152.85 338.01l-6.51 65.49c-21.23 192.19-182.85 337.05-376 337.05-208.62 0-378.34-170.18-378.34-379.38 0-209.19 169.72-379.38 378.34-379.38 99.67 0 193.72 38.54 264.88 108.49 23.91 23.55 62.29 23.16 85.72-.81 23.43-23.93 23.05-62.42-.86-85.91C755.39 50.88 631.15 0 499.57 0 432.15 0 366.7 13.26 305.08 39.4c-59.46 25.22-112.89 61.31-158.74 107.29-45.86 45.98-81.89 99.55-107.05 159.23C13.22 367.71 0 433.29 0 500.89c0 67.61 13.22 133.19 39.29 194.98 25.16 59.67 61.19 113.25 107.05 159.23 45.85 45.98 99.28 82.06 158.74 107.34 61.62 26.13 127.07 39.35 194.49 39.35 123.77 0 242.55-45.74 334.41-128.77 91.13-82.45 148.73-194.93 162.1-316.78l6.75-68.18.24-3.45c8.53-203.58 174.61-363.1 378.01-363.1 99.66 0 193.77 38.54 264.93 108.49Z"/></svg>