<svg xmlns="http://www.w3.org/2000/svg" version="1.2" viewBox="0 0 918 1571"><path fill="#e43539" d="M883.5 1111.2c-39 254.7-264.8 460.7-507.4 459.7-242.5-1.1-405.5-208-370.8-463.5 18.2-134.2 86.4-245.2 149.1-310.2 62.9-65 75.4-130.1 82.2-175.6C268 411.9 396.9 312.2 396.9 312.2c-43.5 124.2-8.3 226 10.8 288.1 12.6 45.8 25.5 100.6 16.8 153.6-22.7 138.7-263.7 207.8-292.4 432.1-22.5 175.1 87.9 316.7 254 317.5 166.1.6 321.5-140.4 347.6-314.9 25.5-170.5-63.1-266.2-150.4-353.8-144.8-145.2-137.7-284.6-123.6-374.4C497.2 222.8 694 26.9 917.4.1c-115.3 84.8-197 215.2-222.7 364.7C676 473 701.5 562.4 725.3 615c51.7 114.4 192.1 275.5 158.2 496.2z"/><path fill="#373535" d="M261.9 1362.1c-36.3-41.3-51.7-99.9-43.3-165 12.2-95.1 78.3-154.4 146.7-219 69.5-65.7 63.7-143.8 61.8-269.3 6.9 58 4.4 99.8 94.4 187.4 89.4 87.1 144.5 155.7 126 279.5-19.6 130.7-138.6 240.7-260.1 240.7h-.9c-50.7-.3-93.7-19.1-124.6-54.3z"/></svg>