<svg xmlns="http://www.w3.org/2000/svg" version="1.2" viewBox="0 0 1568 1568"><circle cx="784" cy="784" r="784" fill="#fff"/><path fill="#3b73b9" fill-rule="evenodd" d="M784 1568C350.4 1568 0 1217.6 0 784S350.4 0 784 0s784 350.4 784 784-350.4 784-784 784zm.1-1531C371.4 37 37 371.3 37 784s334.4 747 747.1 747c412.5 0 746.9-334.3 746.9-747 0-410.5-334.4-747-746.9-747zm664.3 970.6c-.4.7-1.6 1.6-4 .8-2-.7-2.4-1.6-2.4-2.9.1-1.2 26.3-78.5 26-167.1-.2-95.7-39-154.4-88.9-154.4-30.5 0-52.2 21.8-52.2 54.5 0 58.6 71.7 63 71.7 191.1 0 52-10.9 102-28.2 156.3-80.4 271.4-336.7 397.4-586.3 397.4-115.2 0-197-23.7-221.3-34.6-1-.6-1.9-2.5-1.1-4.4.5-1.4 2.2-2.5 3.2-2.1 9.9 3.8 80.1 25.9 167 25.9 95.6 0 152.1-39 152.1-86.9 0-30.4-23.9-54.3-54.3-54.3-58.7 0-63.1 73.9-189 73.9-54.3 0-102.1-10.9-158.5-28.3C212.8 1290 84.6 1036 84.7 784.1c.1-122.8 34.5-220.5 35-221.4.5-.7 2-1.4 3.9-.7s2.4 2.2 2.3 2.8c-3.1 10.2-26 80.2-26 167.1C99.9 827.6 139 884 189 884c28.1 0 52-21.7 52-52.1 0-58.7-71.7-65.2-71.7-191.2 0-54.3 11-102.1 28.3-158.5C280.1 212.9 534.3 86.7 784 84.7c116.1-.9 217.6 33.9 221.5 37 .7.5 1.4 2 .7 3.8-.9 2.1-2.3 2.3-2.9 2.2-1.2-.1-67.3-27.7-167.2-27.7-93.4-.1-152.1 39-152.1 89 0 28.2 21.8 52.1 54.3 52.1 58.7 0 63-71.7 189-71.7 54.2 0 102 10.8 158.4 28.2 271.6 82.5 395.1 338.8 397.5 586.4 1.2 126.8-34.5 222.8-34.8 223.6zM1074.9 821c-73.8 0-130.2 54.3-130.2 119.4 0 54.4 32.6 97.8 75.9 97.8 15.4 0 30.5-8.8 30.5-28.2 0-28.3-37.4-35.2-34.6-77.4 1.9-27.8 28.1-46.4 54.2-46.4 52.1 0 76.4 50.4 76.4 102.5-2.1 80.4-61.3 136.3-130.7 136.3-91.2 0-149.9-86.8-149.9-180.2 0-139.1 91.3-193.4 139.1-206.3.4 0 124.9 22.1 121-32.8-1.8-24.1-37.7-33.4-63.6-34.4-28.8-1.1-57.9 9.3-57.9 9.3-15.1-7.7-25.6-22.7-32.1-40 89-67.4 152-132.5 152-206.3 0-39.1-26.1-73.9-76.1-73.9-89 0-156.4 113-156.4 215.1 0 17.3 0 34.7 4.5 49.9-56.5 41.2-98.5 66.9-174.4 112.5 0-9.5 1.9-34.1 8.3-65.8 26.1-28.3 61.8-70.6 61.8-103.2 0-15.2-8.6-28.3-26.1-28.3-43.4 0-75.9 65.3-84.6 110.9-19.6 24-58.7 54.4-91.3 54.4-26 0-34.8-23.9-37-32.7C636.3 645 738.4 532 738.4 430c0-21.7-8.7-69.6-73.9-69.6-97.7 0-180.1 145.6-180.1 258.4-34.9 0-47.8-36.8-47.8-65.1 0-28.3 10.8-56.4 10.8-65.2 0-8.7-4.3-19.5-17.4-19.5-32.5 0-52.1 43.4-52.1 93.4 2.3 69.5 47.8 113.1 108.6 117.3 8.7 41.3 45.6 80.4 91.1 80.4 28.3 0 63-8.7 86.9-30.3-2.1 15.1-4.2 28.2-6.4 41.2C562.5 821 493 855.7 430 912.2c-49.8 45.7-78.1 106.4-78.1 154.1 0 65.3 41.2 126.1 125.9 126.1 99.8 0 175.9-80.4 212.9-191.2 17.3-52 24.2-127.9 28.7-197.5 99.8-56.5 147.1-89.1 199.3-126.1 6.5 10.8 13 19.5 21.7 26-45.6 23.9-154.2 91.3-154.2 249.8 0 112.9 75.9 238.9 225.9 238.9 123.8 0 208.4-102.1 208.4-199.9 0-88.9-49.9-171.4-145.6-171.4zM549.5 612.4c0-71.7 70.7-207.9 113.9-193.5 51.1 17-42.3 154.4-113.9 193.5zM477.8 1125c-32.6 1.5-54.3-19.3-54.3-54.1 0-93.2 129.4-182.4 227.2-230.2-17.4 130.2-61.4 279.3-172.9 284.3zm482.1-545.1c0-89.2 60.3-175.6 93.3-159.4 37.5 18.9-28.2 102.8-93.3 159.4z"/></svg>