<svg xmlns="http://www.w3.org/2000/svg" version="1.2" viewBox="0 0 1705 1413"><g fill="#2f97da"><path d="M1034.56 95.02s26.2 72.02 29.39 170.26L628.43 772.55l602.59-454.91 29.54 140.78s-458.48 520.34-569.91 667.61c0 0 584.51-483.37 911.14-678.59C1457.68 181.42 1176.09.73 852.04.73 381.5.73.04 382.06.04 852.31c0 13.07 1.27 25.73 1.88 38.69C191.23 727.03 701.14 294.5 1034.56 95.02m669.59 777.8c0-84.77-12.77-166.56-35.88-243.89-196.66 104.48-663.96 363.15-999.41 633.32 70.65 9.74 141.21 20.17 211.65 31.31a10729.38 10729.38 0 0 1 210.98 35.5c70.21 12.53 140.3 25.76 210.24 39.69 69.95 13.92 139.75 28.54 209.41 43.86a848.57 848.57 0 0 0 82.71-120.36 849.509 849.509 0 0 0 60.83-132.74 848.154 848.154 0 0 0 37.15-141.21c8.3-48.05 12.43-96.72 12.37-145.48"/><path d="M1050.93 580.32s-481.38 373.12-547 435.31L438.46 894.6s330.78-412.42 438.87-520.49c0 0-589.07 419.05-859.6 672.26 10.74 51.91 26.5 101.94 46.31 149.95 145.02 11.54 291.87 26.48 440.44 44.56 10.39-12.56 488.08-586.07 546.45-660.56"/></g></svg>