<svg xmlns="http://www.w3.org/2000/svg" version="1.2" viewBox="0 0 1696 1709"><path fill="#ce1126" fill-rule="evenodd" d="M971 3.34c17.09 2.49 34.05 5.48 50.75 9l-88.48 508.2a336.624 336.624 0 0 0-50.79-9L971 3.34ZM615.14 601.58a343.096 343.096 0 0 0-52.29 61.37L174.18 332.38c16.19-21.46 33.32-42.15 51.4-61.98l389.56 331.18Zm425.07-32.73c-13.36-9.08-27.36-17.17-41.93-24.33L1252.86 98.3c14.13 7.8 27.96 16.1 41.58 24.67l-254.23 445.88Zm446.62-280.08c9.12 10.58 17.98 21.46 26.59 32.47l-388.24 329.89a344.86 344.86 0 0 0-26.76-32.29l388.41-330.07ZM37.3 602.18c9-29.77 19.49-58.86 31.44-87.08l477.11 176.04c-14.44 26.9-25.4 55.98-32.42 86.56L37.3 602.18Zm1154.4 253.31c0-40.31-6.94-78.99-19.53-114.97h516.08c4.75 36.84 7.49 74.36 7.49 112.52 0 32.94-2.01 65.45-5.61 97.45l-276.67.04 260.4 95.94c-14.44 63.52-35.64 124.43-63.13 181.7l-296.63-109.4 242.32 205.77c-33.4 51.44-72.12 98.98-115.33 141.9l-271.15-230.39 177.31 310.92a846.8 846.8 0 0 1-149.3 88.23l-193.2-339.14 67.07 385.27c-49.34 13.66-100.52 22.87-153.07 27.28l-72.33-415.25-72.08 415c-50.2-4.41-99.15-13.15-146.43-26l77.3-444.08-221.51 390.24c-41.5-20.05-81.07-43.52-118.5-69.86l235.68-415.39-361.3 307.28c-29.12-30.45-55.98-63.05-80.47-97.61l386.39-328.95-473.33 174.67a865.187 865.187 0 0 1-38.81-108.97l476.25-175.78c27.63 163.06 168.62 287.23 338.56 287.23 189.73 0 343.53-154.75 343.53-345.65Zm-687.1 0c0 16.27 1.24 32.2 3.39 47.88H2.1C1.11 886.71.51 869.92.51 853.04c0-18.16.69-36.06 1.85-53.88h506.91c-3 18.33-4.67 37.14-4.67 56.33ZM394.75 127.55c19.27-12.37 38.97-23.98 59.23-34.82l254.61 446.91c-21.07 9.42-40.98 20.95-59.53 34.27L394.75 127.55ZM671.8 12.98C690.31 8.99 709.07 5.7 727.95 3l88.57 508.33c-19.27 1.76-38.07 5.1-56.32 9.98L671.8 12.98Z"/></svg>