<svg xmlns="http://www.w3.org/2000/svg" version="1.2" viewBox="0 0 784 1509"><path fill="#0067b1" d="m266.01 1508.58-6.79-1.02-6.57-2.17-4.99-2.82-5.55-4.76-4.78-6.44-3.24-6.73-2.17-7.57-.93-5.44v-8.96l1.65-16.34 4.92-30.05 8.38-40.71 6.21-32.24 2.08-14.81-.72-1.95-4.17-1.95-17.06-7.01-24.04-11.5-26.6-15.82-16.24-10.84-21.3-16.28-12.71-11.49-13.73-13.58-10.56-11.5-16.02-18.72-3.47-4.54-6.72-8.6-16.25-22.85-2.9-4.69-5.84-8.91-1.52-1.14-.5.8.21 5.62 1.67 15.62 3.24 21.4 8.52 37.8 2.17 14.74.37 14.83-.5 7.73-1.52 7.66-2.61 7.66-2.6 4.47-3.67 5.22-5.21 4.98-5.56 3.68-5.27 2.17-5.28 1.02-6.5-.14-5.19-1.53-4.63-2.38-4.98-3.9-3.69-3.84-4.33-7.43-3.26-9.05-1.43-10.77v-14.08l1.29-12.36 5.78-29.06 6.86-27.39 2.09-11.43.95-9.02.57-2.25 1.52-14.75.43-26.24-.86-17.55-.57-4.94-.59-8.66-2.74-15.69-1.02-5.71-5.98-23.7-5.57-23.28-4.33-32.52-1.52-23.64.21-18 .22-2.59.07-10.43.52-12.35.5-3.25.65-9.97L5.49 891l4.12-21.97 4.55-19.23 6.71-22.47 5.41-16.05 9.97-24.58L46 765.96l11.71-21.25 7.14-11.85 13-19.52 14.95-19.73 11.92-14.31 2.74-2.83 3.92-4.33 15.02-15.17 3.4-3.04 13.71-12.37 19.44-15.17 8.65-6.15 9.97-6.94.8-1.38-.37-1.88-3.6-6.57-1.95-6.36-1.45-9.9.23-7.37 2.31-9.91 3.46-7.96 5.63-9.32 5.34-6.8 10.92-10.11 5.55-3.97.95-1.52-.51-1.45-4.26-3.54-4.33-6-2.18-4.7-.79-3.67-.21-6.96 1.23-6.28 3.03-7.44 3.25-5.21 4.98-5.63 4.33-3.91 8.02-5.2 7.66-3.26 11.33-3.25 11.64-1.88 8.45-.2 8.59-.37.65-.79-.5-1.52-2.53-3.69-2.81-5.85-1.3-5.42-.08-5.28.72-4.2 1.95-4.62 3.04-4.56 3.89-3.9 6.01-3.69 4.98-1.73 3.81-.79h8.69l6.13 1.22 9.83 3.47 8.45 4.56 5.55 3.69 8.74 7.37 6.21 6.51 10.2 13.35 5.84 9.41 3.97 7.37 1.22 1.29.52-1.36-.45-7.09-2.88-15.83-3.03-22.69-2.61-15.9-3.67-14.39-2.16-5.79-2.53-3.76-2.81-2.29-3.49-2.9-2.15-3.97-1.09-5.28-.72-4.92-1.95-2.88-3.9-4.79-6.07-6.71-2.67-1.74-2.61-.21-4.1 1.16-2.83-.37-2.88-1.95-4.4-4.69-1.74-.73-1.88.51-4.76 3.9-1.88.72-2.31-.36-2.97-1.95-8.88-9.11-13.44-17.71-12.14-19.3-5.64-10.63-6.26-14.45-7.45-20.31-2.83-4.49-8.88-10.4-15.95-16.56-18.06-18.79-4.05-2.81-3.24-1.09-5.58-.93-2.67-1.52-2.38-3.76-1.72-6.08-1.02-8.02.22-5.42 2.31-12.22 2.59-7.87 4.78-11.2 7.36-14.17 9.32-16.26 8.88-13.17 9.54-12.36 12.79-15.17 1.66-1.74 9.61-9.75 16.45-14.54 8.4-6.57 9.59-7.1 9.33-6.05 17.26-10.63 19.65-9.12 15.74-4.99L345.97.43l9.76-.43 8.59 1.23 5.93 1.95 3.11 2.17 1.5 2.3.72 4.64-.79 5.27.57 2.31 2.62 3.4 15.54 17.64 7.55 8.02 16.77 18.57 7.58 7.82 4.06 2.59 11.76 4.42 11.26 5.42 8.81 5.19 14.3 9.98 13.25 10.63 17.16 16.62 6.02 7.6 1.22 2.31-.15 2.38-1.3 2.47-3.6 4.33.21 2.09 2.15 2.9 4.49 6.14 1.22 3.33-.35 2.66-2.1 4.06-.22 1.72 1.95 3.13 7.15 7.57 4.06 3.47 4.26 2.4 5.64.93 2.86 1.75 3.03 4.6 1.33 3.34.71 4.48-.5 5.28-1.54 5.56-3.24 8.61-6.71 13.22-8.88 15.11-9.11 13.23-11.91 15.83-11.25 13.01-11.29 12.36L464.56 321l-3.61 2.89-3.46 3.17-18.63 14.76-16.26 11.56-1.8 2.52-.72 2.97-.88 62.89-.21 13.22-1.45 36.3.3.86h1.01l2.37-4.05 2.89-5.49 3.42-5.58 3.95-6.06 6.52-8.25 7.79-8.45 2.09-1.73 6.07-4.78 8.24-5.19 6.42-3.04 8.61-2.61 6.58-1.22 9.08.57 4.93 1.31 6.03 2.81 4.71 3.26 4.99 5.42 2.6 5.06 1.95 5.92.36 6.23-1.22 5.2-1.74 4.26-2.95 4.92v.72l1.14.5h10.4l8.69 1.66 8.79 3.47 4.92 3.04 5.26 5.12 2.97 4.49 2.81 6.3 1.17 5.35.21 5.35-1.16 5.78-2.14 4.63-3.41 4.62-5 4.04-4.76 2.68-.5.93.88.95 6.07 2.46 4.24 2.3 7.54 4.42 13.57 10.18 10.61 11.06 4.98 7.37 3.47 7.53 1.94 7.08.73 5.41-.22 7.03-1.35 6.94-2.85 6.78-3.62 5.57-.48 1.8.72 1.45 34.81 23.92 15.17 11.72 8.96 7.73 5.98 4.85 16.26 15.6 13.72 15.33 9.27 10.84 10.39 13.01 9.52 13.31 12.57 19.5 17.33 30.51 12.16 26.89 6.12 16.42 1.45 4.17 2.9 8.25.64 2.89 5.34 17.57.95 3.97 3.83 16.84 4.4 28.34 2.38 21.68 1.59 25.3-.23 27.32-1.95 37.07-2.24 20.97-1.36 9.05-2.24 13.15-1.23 8.32-2.79 17.41-1.11 14.6.06 4.49-.14 2.45.08 28.91 1 13.37.59 6.36-.14 1.88.57 8.52-.34 7.75.5 2.38-.73 2.18-2.53 22.47-2.18 12.58-3.17 14.74-1 3.33-4.47 15.83-5.15 15.46-2.43 7.46-1.25 1.22h-2.03l-1.42-1.45-1.75-5.5-3.11-17.92-5.4-21.04-12.09-42.57-1.14-10.55-.51-.86H722l-1.45 1.66-5.04 8.66-13.81 19.38-13.94 17.28-7.29 8.23-19.59 19.95-5.78 5.28-13.85 12.36-11.28 9.25-16.25 12.15-20.59 13.65-18.19 10.84-18.84 9.55-21.61 9.33-20.38 7.15-20.29 5.87-16.19 4.1-24.18 4.78-25.99 3.39-21.27 1.74-33.33-.22-11.08-.87-6.05-.2-28.39-3.47-29.11-6.03-18.57-4.83-.94.73-.36 1.01.3 5.77.72 4.5 2.16 13.95 13.43 66.72 1.95 12.65 1.74 11.41.43 17.21-.5 8.09-1.95 8.62-3.69 8.14-4.53 5.65-4.78 4.33-4.48 2.6-6.44 1.95-6.71.59Z"/><path fill="#ef4135" d="m267.97 1491.22-4.99-.15-5.55-1.73-4.05-2.59-3.69-4.5-2.82-5.99-1.88-8.46-.43-6.71 1.5-16.91 2.54-15.17 2.47-12.6.34-3.25 3.85-19.16 4.26-24.87.58-4.1 1.66-7.46 3.33-18.78.57-.72.63 1.15 1.82 12 2.82 20.45 9.02 46.64 1.16 7.5 2.47 15.33 1.2 13.22.3 10.63-1.23 9.46-2.17 6.51-3.02 4.48-3.4 3.04-4.91 2.18-2.38.56Z"/><path fill="#0067b1" d="m743.6 1465.42-7.73-1.02-5.65-1.73-4.88-3.02-5.02-4.57-3.88-5.99-2.4-5.35-1.48-6.23-.61-8.96.23-2.59-.23-1.95 1.31-12.37 4.25-20.89 5-18.63 2.72-9.05 3.78-13.44 7.95-27.19 6.26-28.47 3.12-18.35.87-1.61 1.31-.63 1.22.27.85 1.38.81 4.56.63 9.11 1.09 14.09 1.66 12.44.67 6.21 3.16 18.94 1.15 7.23 4.55 21.38 6.44 31.81 1.6 15.26.28 11.63-.71 9.39-1.83 6.44-3.02 6.57-3.26 4.58-3.67 4.17-3.83 2.75-4.91 2.38-4.99 1.24-2.81.21Zm-645.74-11.5-8.22-.2-6.95-1.68-6.64-3.24-4.33-3.47-3.83-4.04-3.9-6.3-2.17-5.85-1.81-6.94-.93-10.34.13-8.45 2.18-16.71 4.98-24.72 5.21-22.54 4.04-15.98 2.67-12.65 1.88-8.09 2.02-10.12 6.65-31.53 4.47-28.32.5-5.92 1.17-1.97 1.07-.28 1.23.51.65 2.31 2.24 18.07 4.56 27.77 9.31 44.3 4.33 17.85.43 2.31 1.88 8.3 3.11 16.21 2.03 9.97 2.81 20.16.66 13.24-.43 11.05-1.68 8.9-2.81 8.17-2.38 4.53-3.9 5.15-2.53 2.6-1.3 1.3-7.15 4.12-5.71 1.95-3.54.57Z"/><path fill="#ef4135" d="m743.39 1448.94-5.16-.36-3.17-1.29-3.88-3.47-2.17-3.33-2.18-6.01-.93-5.35-.07-10.54 1.3-9.34 1.15-5.47 1.16-7.53 5.83-24.42 5.14-18.52 4.84-22.92.78-.91 1.17 4.24 1.97 16.21 3.45 26.23 1.94 11.5 3.76 28.34.21 7.35-.21 1.74v3.04l-1 5.71-1.96 5.49-3.02 4.69-4.05 3.04-4.9 1.88ZM96.34 1436.8l-4.76-.14-4.05-1.09-4.03-2.38-3.9-3.83-2.83-4.56-2.38-6.57-1.02-4.42-.36-7.66 1.6-15.33 4.33-24.06 7.3-32.74 8.29-44.96.45-.72.78 1.95 2.46 17.79 3.4 16.17.93 5.65 6.14 27.54 2.11 12.57 1.36 7.37 1.95 14.96.45 13.88-1.68 11.85-1.72 5.21-2.83 5.35-3.67 4.13-4.26 2.81-4.06 1.23Z"/><path fill="#fff" d="m411.85 1338.79-3.99-.57-8.07-2.61-2.53-1.74-1.75-2.68-1.15-3.83-1.86-4.76-1.95-1.66-2.83-1.59-1.73-2.24-.81-9.98-.41-9.54-1.02-9.61.5-1.52 3.31-1.02 3.92-.43h5.41l1 .57-1.57 4.35.23 7.14.71 1.97 3.67 4.76 2.67 1.45 3.05.36 2.25-.79 3.67-3.92 1.81-.79 4.17-1 .75.36.13 2.45-.06 2.11 1.51 3.9 1.59 3.31-.36 3.12-.28 2.32.98 3.6 2.54 3.54.16 2.38-1.45 4.06-2.4 3.83-1.66 1.95-2.01 1.09-4.2 1.16-1.94.5Zm-67.84-.22-3.1-.15-3.38-.73-3.48-.34-.8-.66 2.31-1.22 11.49-4.2 3.98-1.95 2.16-2.53 2.24-4.13 2.02-1.29 4.33-.59 3.41.16.43.63-.29 1.02-1.38.87-4.69 1.58-1.22 1.45-1.38 4.78-1.66 2.16-10.99 5.14Zm26.23-21.26-2.24-.13-.58-2.47-.21-5.42.65-8.01-.29-4.42.21-2.6 1.01-4.77.73-2.38 1.15-.59h5.63l1.38.8.81 2.67 1.5 12.59.22 10.4-.81 1.66-1.34.79-7.82 1.88Z"/><path fill="#ef4135" d="m468.84 1302.79-3.91-.36-3.97-1.73-3.9-3.69-2.17-3.54-3.04-7.8-1.43-9.77-.14-8.6 1.23-16.12 2.95-15.18 1.38-4.77.34-2.24 1.16-5.13 2.96-12.22 1.09-4.78 5.05-23.76 1.66-10.13.59-.14.79 2.88 1.67 10.63 2.81 14.4 3.45 14.51 2.33 8.03 3.02 11.85 2.9 16.12.95 11.43-.28 14.67-1.6 8.09-2.82 7.08-2.81 4.49-3.5 3.03-3.95 1.96-2.81.79Z"/><path fill="#ef4135" d="m38.92 1293.68-3.83-.15-3.17-1.3-4.55-3.47-3.47-4.91-2.17-4.99-1.66-7.53-.65-8.23.22-10.61 2.31-16.76 6.28-29.72 3.54-16.62.58-3.83 1.81-12.02.8-7 .72-3.61 1.29-15.19v-25.8l-1.72-17.14-4.05-25.22-5.42-30.72-2.6-14.53-6.35-44.23-1.31-19.52.95-42.22 5.48-42.06 4.33-21.38 4.35-17.07 6.71-21.47 7.79-21.39 12.14-27.47 12.35-23.06 16.25-25.94 10.62-14.74 13.87-17.14 15.18-16.71 16.24-16.25 17.33-14.74 13.58-10.2 14.3-9.75 5.64-3.54 1.31-1.74 1.79-.21 2.24-.8 2.9.21 6.21 1.38 6.93-.22 5.62-1.23 6.23-2.6 6.21-3.9 5.84-4.77 2.68-2.54 1.67.16 1.28 1.86 2.67 3.77 2.74 2.6 4.49 2.61 5.27 1.95 2.32.36 7.79-.22 5.42-1.66 4.64-2.61 5.41-4.12 9.75-10.41 15.02-18.36 4.91-4.11 4.99-3.04 5.12-1.95 4.41-1.38 1.02-1.38-.38-1.59-3.1-1.07-3.04-.15-6.34 1.02-5.71 2.17-5.64 3.25-5.35 4.33-13.07 13.6-3.88 4.33-5.8 4.56-3.89 1.52-4.92.36-4.9-1.23-2.74-1.74-2.17-2.75-1.59-4.84-.07-4.2 1.66-6.94 3.89-7.94 5.21-6.43 5.42-4.99 6.71-4.77 7.29-3.69 10.7-3.9 8.38-1.74 12.92-.8 12.72 1.45 8.73 2.18 14.45 5.85 6.5 3.69 9.02 7.15 2.4 3.17 2.43 3.7 1.18.57 1.58-.35.88-1.53.78-4.41v-34.26l-1.28-28.4-1.31-19.52-.79-7.01-1.17-17.28-1-8.95-3.11-32.04-2.74-18.21-2.17-9.54-3.25-10.11-3.03-5.42-4.69-5.58-1.75-3.76-.36-1.36.14-5.06 2.83-10.99 5.62-13.36 7.37-13.03 10.62-15.97 10.61-13.87 13-14.54 17.33-17.57 6.52-5.85 8.25-7.57 14.43-11.72 17.4-12.79 18.99-11.93 12.28-6.5 8.25-3.7 7.41-2.15 6.25-.37 3.31 1.23 2.38 2.9.57 3.67-1.44 7.6-4.76 10.77-14.31 22.04-6.92 9.11-3.64 4.4-7.86 9.91-15.31 16.91-15.68 15.83-24.91 21.24-14.88 11.15-7.16 6.49-2.79 4.63-1.54 3.76-.36 3.83.5 50.9.74 15.31-.17 2.31.24 3.9-.07 34.64-.88 44.67-.36 5.05-1.27 29.5-1.47 25.51.71 2.17.96.8h1.86l11.22-7.96 5.41-2.81 8.59-3.47 7-1.75 3.83-.57 9.54.21 5.84 1.45 4.7 1.95 5.77 3.7 3.9 3.9 3.9 6.21 1.6 4.85.28 5.06-1 6.14-2.17 4.99-3.68 4.33-6.66 4.33-5.19 2.04-1.38 1.43.73 1.52 1.58 1.09 3.92.36 6.28-1.02 6-2.38 4.67-3.25 4.78-5.35 2.81-5.57 1.97-6.28.5-5.15-.73-6.28-1.29-3.9-2.6-5.12-.88-1.52 1.76.2 7.14 4.78 3.67 2.75 8.23 6.57 4.13 3.84 12.13 11.56 6.07 5.85 9.83 8.16 8.23 5.44 6.12 3.04 4.55 1.22 6.75.44 6.48-.66 2.67 1.02 13.22 7.59 14.52 9.32 21.24 15.17 19.06 16.05 3.68 3.4 12.36 11.79 2.16 2.3 8.24 8.54 12.35 14.31 2.26 3.17 3.59 4.35 10.19 13.45 2.02 3.02 16.17 24.07 6.08 10.12 8.88 17.2 6.14 13.45.86 2.45 5.36 12.94 7.57 21.41 6.71 22.83 2.61 10.18 3.41 17.93 3.61 24.37 1.72 15.83.14 2.95.52 8.98.2 6.43-.63 2.16 1.07 4.7.22 29.42-.14 10.34-.29 13.38-1.23 10.25-.44 8.68-.44 1.73-.56 7.59-1.3 10.77-4.55 28.11-2.31 24.37-.95 6.65.14 31.15 1.01 31.81-.56 14.15-1.02 9.11-3.9 20.59-1.74 4.65-.85-.14-1.03-2.11-5.05-15.39-5.35-14.6-2.9-12.79-1.71-17.14.57-32.67-.88-14.53-3.38-24.42-3.6-17.37-1.31-4.98-1.36-12.21.36-16.69 1-11.15 1.17-7.07.21-10.62-1.02-7.38-3.04-9.75-2.58-5.58-3.26-4.97-4.56-4.71-3.74-2.38-4.34-1.52-4.33-.14-4.49 1.43-4.26 3.26-3.91 4.49-2.59 4.77-3.69 10.4-1.72 8.68-2.25 16.49-3.26 11.11-2.51 7.53-3.25 16.55-.72 9.75.15 7.66.85 5.42.57 5.85 2.1 8.98 1.61 6.64 1.2 4.2 4.94 22.48 1.01 12.15-.38 5.41-1.88 6.43-2.74 4.99-2.83 3.19-3.38 2.16-1.95.59-3.31-.16-2.69-1.08-2.95-2.16-2.82-3.33-2.38-4.33-1.52-6.3-.36-7.6.56-7.51 1.52-10.7 6.73-29.77 3.17-12.58 1.66-11.2.38-9.41-1.16-6.94-2.4-7.66-3.67-7.8-6.29-9.89-8.23-10.2-8.66-7.8-11.3-8.25-15.07-9.18-8.76-7.58-4.9-5.42-4.55-6.66-6.78-10.84-9.11-13.01-7.79-7.8-6.88-4.56-5.35-2.17-6.35-1.73-4.89-.57-7.39.35-8.45 1.95-5.26 2.4-5.84 4.33-4.35 4.33-4.35 6.21-2.24 5.06-2.52 5.07-3.03 10.62-2.45 16.98-1.07 22.78.14 2.95-.64 18.01-1.67 15.75-2.83 12.15-4.33 13.09-4.78 11.78-4.24 9.75-4.76 15.11-2.6 11.28-.95 4.18-.57-.14-3.99-14.67-6.07-14.75-6.05-12.93-7.59-14.24-4.48-7.8-6.49-12.15-3.91-9.55-3.9-12.06-4.35-19.38-5.05-29.12-3.88-14.32-3.69-8.89-3.26-5.78-3.45-4.56-1.02-.86-2.39-2.18-3.04-1.95-3.81-1h-4.76l-4.28 1.66-3.6 2.81-3.26 4.7-3.88 8.68-4.64 11.79-3.68 6.42-4.98 6.5-14.45 13.95-4.35 6.02-2.81 5.56-2.09 7.37-.88 5.42-.64 17.55 1.3 20.18 6.93 39.9.59 14.1-.36 5.42-1.23 5.12-2.53 3.91-2.82 2.1-2.96 1.23-3.04-.14-2.24-1.31-2.38-2.52-1.72-3.2-1.32-4.1-.79-4.99.57-11.94 2.17-11.34 5.06-22.92 2.39-13.45.64-10.61-1.22-11-2.59-10.77-4.28-12.49-2.6-9.62-1.88-12.94-1.14-10.13-1.6-7.58-3.04-7.8-4.33-7.39-4.53-5.55-5.37-4.13-4.1-2.16-5.12-1.31-2.18-.36-6.5.36-5.64 1.52-5.98 2.83-6.87 5.2-10.69 9.47-8.16 5.42-6.72 3.26-10.68 3.46-17.42 3.98-7.73 3.04-5.84 4.04-7.09 7.23-4.76 6.94-3.24 6-2.4 7.24-1.88 8.73-.43 12.79.22 9.77-.08 17.27-1.8 14.74-1.95 6.94-11.84 27.03-3.97 13.3-.66.64-.72-3.6-1.22-7.24-5.42-16.32-3.4-7.87-3.9-11.43-2.6-11.92-1.43-11.34-1.54-24.74-1.22-7.59-1.52-3.54-2.74-2.6-2.31-.8-2.81.36-2.47 1.3-2.16 2.31-2.38 4.99-2.17 8.18-3.53 23.2-2.83 9.9-4.11 9.55-1.88 4.11-4.12 10.99-1.72 7.3-.73 2.31-1.08 1.45-2.02.21-1.61-1.43-1.29-3.7-2.38-8.95-6.93-17.66-1.68-6.49-1.94-14.76-.28-13.35-.95-3.04-1.52-1.88-2.31-.94-2.59.73-1.96 2.52-1.52 3.18-2.38 8.25-1.45 12.56-.79 8.03-.93 7.38-7.07 28.69-6.01 22.54-3.89 19.88-2.11 14.96-.43 13.45.66 13.44 1.65 14.53.36 1.68.51 4.69 5.41 30.14 4.42 23.99 1.65 16.77-.34 9.03-1.38 7.96-2.68 7.59-2.81 4.26-1.24 1.07-3.67 2.83-4.49 1.45Z"/><path fill="#fff" d="m409.04 1285.22-2.11-.14v-.58l1.9-.14.57.36-.36.5Zm-39.67-3.03h-6.06l-1.38-.79-3.03-4.84-1.23-3.69-1.22-9.68.34-6.8-.77-1.59-1.38-.86-5.57-1.18-1.87-1.43-3.26-5.42-1.22-4.05.29-2.61 1.16-1.59 2.31-1.81.36-2.02-1.88-5.19.5-1.18 3.33-1 8.74-1.22 1.73-.87.72-1.74-.51-1.45-1.37-.78-5.64.21-6.27.79-2.02-.51-1.02-2.01.16-3.12.63-1.09 1.18-.29 3.67.38 2.88-1.24 3.26-2.52 4.33-5.72.57-1.58-.36-3.11-2.16-7.23-4.55-9.46-2.75-4.49-2.15-3.83-3.26-4.85-.79-2.17.36-4.34.52-2.38-.31-2.6-1.59-2.89-3.02-3.91-6.95-6.92-3.17-3.27-4.63-4.76-1.58-.59-4.69.3-2.02-1.25-2.17-.2-3.47.5-3.62-1.23-5.28-2.52-7.3-2.45-1-.88v-1.22l1.82-1.09 12.91-3.54 1.88-1.45v-2.02l-1-1.24-2.24-.21-15.54 4.27-2.31.13-1.66-.79-2.17-2.09-2.02-.79-3.33.36-5.05 1.45-5.26.34-6.93-.41-4.71 1.23-6.12 2.96-7.45 1.8-5.19 1.95-1.11 1.45-.93 3.68-1.81 1.08-5.55 1.16-.8.59-.72 3.53-2.09 2.11-.15 2.52.07 1.66-1.3 1.67-6.07 2.68-2.09 2.15-3.76 5.58-4.03 3.47-9.54 7-3.48 3.84-2.59 4.47-2.83 6.36-1.36 3.68-3.04 4.64-.5 1.37.37 2.6 2.08 4.33.95 3.13 2.52 2.95 1.22 2.81-.36 1.38-1.08.52-4.63-.95-7.43-2.09-3.17-.15-1.59.79-.72 1.3.5 1.46 3.89 1.51 12.8 3.96 1.22 1.02.37 1.9-.23 2.8.59 1.38 2.09 2.74-.21 1.66-1.67 1.67-6.78 3.32-2.11 2.1-1.51 4.13-.73 3.31-1.15.95-2.09-.36-6.5-3.04-22.03-12.36-22.76-14.75-12.78-9.1-10.04-8.39-1.02-2.03.23-2.95 1.52-4.13 1.15-.79 2.09.36 14.66 6.66h2.24l.95-1.38-.16-2.31-1.22-1.45-16.32-7.87-1.74-1.83-.29-.86.45-13.43-.8-9.98.5-1.81 1.59-.57 4.55-.22h5.19l12.35-.87 1.38-.58 1.09-1.59-.14-1.45-1.24-1-3.04-.16-21.66.66-1.45-.59-1.01-1.59-2.88-10.11-3.25-7.8-.29-1.38.57-1.38 4.91-3.25 32.29-18.27 2.81-2.54.23-1.45-.8-1.16h-1.88l-5.26 2.61-26.01 15.32-7.15 3.9-2.11.37-1.58-1.02-3.11-4.92-7.57-9.32-8.81-8.25-6.94-5.26-.58-1.16.79-6.44 2.24-13.74.8-6.12.86-1.81.58.56 4.4 18.44 3.47 9.68 5.64 10.42 5.41 6.87 4.35 4.54 1.14.81 1.15-.15 1.61-6.08 3.17-5.99 3.47-9.76 3.53-12 3.47-7.59 2.54-4.92 4.98-12.57 2.02-8.97 1.29-9.03.66-1.15.79.65 1.45 7.08.64 6.94 2.96 14.53 5.64 16.39 2.97 7.3 2.38 8.32 1.45 10.27.34 10.77-.57 7.01-2.53 13.88-7.5 26.82-2.9 18.58-.07 5.99.86 6.49 1.88 6.16 2.61 5.42 3.17 4.13 3.91 3.24 4.26 2.18 3.47.79 6.06-.22 4.7-1.66 4.47-2.81 3.92-4.13 2.81-4.26 2.6-6.8 1.43-7.23v-8.89l-1.36-12.5-6.86-38.24-.44-4.33.21-10.64 2.54-11.27 4.98-12.28 6.43-13.16 5.42-14.74 2.52-10.78 1.74-13.02.21-13.65-.43-4.12.22-10.84 1.22-6.94 1.52-5.78 2.16-4.26 3.91-4.99 4.11-3.7 6.86-4.12 11.42-4.33 12.71-3.97 10.83-5.21 8.18-5.2 14.79-11.2 7.73-4.78 5.35-2.16 3.91-.79 3.95.36 4.85 1.73 1.88 1.45 3.03 4.33 1.95 5.28 3.97 24.44 3.69 11.2 5.78 12.22 1.74 5.47 1.36 10.34.07 8.39-1.43 11.65-3.92 18.05-2.08 7.02-3.04 13.09-1.15 9.45-.07 12.31 1.43 7.87 2.83 7.23 3.03 5.13 3.9 4.35 5.12 3.67 4.42 1.75 3.31.56 5.78-.36 5.86-1.72 3.6-2.18 4.13-3.67 3.24-4.49 2.6-5.78 1.88-7.17.66-5.42-.43-9.54-2.31-15.46-8.97-41.56-.43-3.92.2-12.79 1.24-7.44 1.73-4.4 2.83-4.49 3.67-3.9 11.19-8.75 5.2-5.21 4.36-6.42 2.59-5.14 3.1-9.48 2.6-4.26 1.88-1.73 2.32-.5 2.44.93 3.04 2.97 3.47 5.49 3.46 8.16 3.9 14.47 3.04 15.03 1.81 9.75 3.46 11.36 4.13 10.84 4.55 9.32 1.65 2.9 3.54 7.07 10.54 19.23 11.48 25.08 4.56 13.01 3.91 17.14 1.57 11.2.21 10.56-1.14 5.2-1.02.86h-2.15l-3.69-1.73-2.61-2.53-.93-2.46-1.1-4.69-1.87-2.38-2.29-1.24-2.33.36-6.65 4.12-3.89 3.83-4.55 2.82-9.97 3.33-5.41 3.62-3.61.78-4.05-.14-2.1-.86-1.5-1.68-1.95-5.12-.23-5.42 1.07-5.64-.5-2.45-4.05-3.47-2.66-1.09-2.46-.29-5.64.36-5.63-1.09-3.51.38-11.66 4.04-4.54-.14-1.59 1.09-.94 1.43h-1l-1.97-4.4-2.02-4.92-1-1.22-1.88-.23-1.59 1.02-.5 2.02 5.2 15.55.5 3.17-.5 2.52-3.47 4.56-.66 2.11.73 1.5 3.83 2.83 3.03 1.59 1.95 2.31 2.81 9.54 4.56 18.3 4.05 19.57-.23 6.3.8 2.02 1.45 1.95 2.38 11.06 4.84 31.22 1.16 11-.79 1.59-3.78 1.01-3.24.21Z"/><path fill="#fff" d="m384.76 1280.68-1.67-.8-.5-1.59-.87-10.85.5-.3 2.82 2.54 2.53.81 6.95.43 3.68-.65.72.36-.14 1.66-1.81 3.62.22 2.73-1.69.81-7.93 1-2.81.23Zm21.44-2.4-2.45-.36-.37-1.36 1.04-2.31 6.62-10.34 1.74-2.9 4.35-4.77 3.88-2.74 4.92-2.61 1.6.14 1.5 1.09.59 1.45-.37 2.81-1.72 3.11-4.48 6.3-3.92 6.78-4.1 4.06-7.32 1.45-1.51.2Zm-24.26-13.66h-.64l-1.47-7.66-4.31-28.04-1.38-5.75 11.71-2.85 6.48-1.38 14.75-3.54 2.74.36 2.31 2.32.59 2.31-.81 4.33.93 2.68 2.11 1.95 2.39 1.81.71 1.52-1.16 2.97-15.74 16.53-3.54 6.3-2.6 2.52-3.74 1.24-6.3.23-2.03.79-1 1.36Zm-206.72-15.17-5.21-.37-4.26-1.08-3.39-2.16-7.14-5.14-3.04-2.02-11.06-9.25-2.08-.8-6.73 1.09-2.67-1.02-5.19-4.33-14.09-13.22-6.28-6.87-1.16-2.04.93-.13 13.37 9.31 5.21 3.84 23.68 16.25 10.62 5.94 13.8 7.73 5.19 2.68.52.79-1.02.8Z"/><path fill="#0067b1" d="m384.1 1239.04-2.31-.59-2.53-2.31-.71-2.09.28-1.88 1.88-2.11 2.89-1.29 6.71-1.3 3.99-.15 2.24.81.93 1.79-.72 3.9-1.09 2.9-1.57.8-4.43-.71-5.56 2.23Z"/><path fill="#fff" d="m376.31 1216.92-2.75-.14-1.24-1.45-4.1-18.5-3.62-16.55.15-2.04 2.09.23 3.84.72 3.18-.29 1.43-.72 1.95-1.44h2.24l5.12 1.21 1.97 1.16 1.74 2.1 3.1 6.6 3.18 3.59.14 2.31-.21 3.26 1 2.24 2.52 2.39 1.6 4.98 2.31 2.61v1.09l-2.38 1.07-12 3.03-11.26 2.54Z"/><path fill="#ef4135" d="m153.77 1200.01-3.24-.36-3.12-1.75-1.95-2.09-1.73-4.05-.58-4.13.43-8.87 2.31-15.76 7.81-39.33.43-.57.57 1.09 6.14 45.32.52 9.68-.23 9.98-1.22 5.42-1.95 3.17-2.24 1.66-1.95.59Z"/><path fill="#fff" d="m96.78 1194.16-1.79-.59-3.26-3.4-8.89-11.7-8.01-12.07-3.33-5.14-6.21-9.68-7.37-13.38-2.38-6.5-.36-3.03 1.23-5.71 4.32-13.1 3.18-8.52 1.38-3.83 1.38-.64 1.86.5 6.86 5.21 4.35 4.69 7.36 9.32 4.11 6.73 4.12 8.6 3.26 9.03 1.73 7.16 1.58 10.63.3 11.77-.94 9.63-2.46 11.19-1.3 2.46-.72.37Zm457.86-32.32-3.33-.36-2.95-.72-3.4-.37-1.86-1.65-1.1-1.88-.21-1.52 1.02-1.59 1.5-.66 3.1-.72 2.74-3.18 2.82-2.81 11.57-8.66 1.24-.23.41.14-.2 1.59-3.04 4.69-4.26 4.42-1.02 2.45.35 2.04 1.67 1.29 2.74.36 7.3-2.1 2.74-1.95 9.99-11.63.57-1.68.58-2.59 2.16-3.98 2.31-1.73 2.52-.57 2.96-.29 1.25-.73.72-1.95v-5.14l1.72-3.02 4.92-3.33 2.4-1.88 5.4-1.82 4.76-3.24 1.65-1.02 2.4-.57 6.07-.36 4.19-1.31 1.45-.8 2 .23 1.31 2.02.22 2.74-1.67 2.11-4.76 2.59-4.33 1.81-4.41 3.26-8.44 12.29-4.14 3.67-2.58 1.32-3.54.13-1.67-.07-2.74 1.07-4.13 3.92-2.81 3.83-5.19 8.01-2.46 4.56-1.87 2.17-2.89 1.09-4.49.95-2.17-.73-2.95-1.89h-2.31l-2.97 1.96-1.52 1-3.82.8-1.52.22Zm158.83-5.42-1.36-.5-.52-1.95.22-3.55.37-4.18-.59-2.54-2.74-2.97-1.73-1.72-.58-1.45.13-2.38 1.95-4.2 1.9-3.04.71-3.69-.5-3.31-2.16-4.27-2.6-2.46.14-3.97 3.53-9.55.81-4.12-.81-1.8-1.86-1.74-4.64-3.47-1.86-2.38v-1.88l1.72-3.11 4.26-7.44 3.04-6.8-.21-2.9-1.24-.93-1.3.5-3.03 5.14-2.9 5.63-4.53 6.28-1.82 1.31-1.6-.13-4.02-2.38-4.14-.52-1.79-1.09-1.09-2.61-2.38-10.97-.79-6.23-.23-11.48 1.32-10.41 3.38-11.99 4.91-14.47 1.23-5.42.65-11.49 1-4.06 3.05-5.12 3.18-2.61 2.52-.79 2.76.36 2.74 1.52 2.15 2.67 2.4 4.41 2.38 7.81.79 5.56v13.45l-1.07 14.3-1.03 7.17-.29 7.37 2.03 19.22 1.59 7.67 2.76 9.54 3.02 15.9 1.36 14.53.21 16.12-.78 13.74-.79 2.74-5.85 9.91-1.38 1.22Zm-212.57-.43-2.03-.59-4.75-3.24-3.27-2.54-1.85-.36-4.77 1.52-4.56-.14-1.15-.86-.8-3.11-.15-7.89.95-2.81 1.36-.79 5.41.43 2.83-.21 3.83.78 1.86 1.53 4.56 8.08 2.03 3.99 1.66 3.4v1.88l-1.16.93Zm9.76-3.04-2.11-.14-1.65-2.04-8.68-15.32-.93-2.8.52-3.05 1.72-2.97 2.52-1.93 2.76-.52 4.69.22 2.31-1.08 5.28-8.17 3.17-3.04 1-.36 5.42.16 1.17-.74.43-1.8-1.51-2.24-3.33-1.95-2.81-.8-3.4.37-3.55.72-4.63-.16-4.39-1.88-2.23.23-2.9 1.95-3.91 3.61-3.18 2.17-5.84.36-.95-.5-.71-2.83-1.45-1.29-.36-.8.36-2.31 11.06-23.56 6.62-16.48 4.14-13.96 1.95-9.48 2.24-15.17 1.57-29.2.81-22.99 1.73-8.96 1.95-6.94 3.67-7.87 4.14-5.35 4.34-3.69 5.06-2.38 5.62-1.45h5.85l5.27 1.02 5.9 2.17 6.88 4.54 4.99 5.21 5.62 8.6 9.19 17.21 4.76 7.07 4.33 4.99 8.38 7.39 9.18 6.71 16.49 9.39 12.24 8.02 5.88 5.65 4.75 6.73 3.69 8.09 1.01 5.42.66 11.27-1.24 12-1.07 5.42-.81.88-1.23.14-3.24-.21-2.17.21-3.26-.21-8.66 2.09-1.43-.3-.16-1.58 2.61-3.54 11.4-14.76 5.21-7.58.79-2.31-.36-2.9-1.3-.72-1.44.95-6.71 8.44-12.21 15.98-3.33 3.04h-1.88l-3.18-2.54-22.54-23.06-25.35-27.96-2.88-3.62-14.23-17.56-1.83-3.62.31-1.59 2.76-2.67 8.21-7.08 9.42-8.53 1.07-2.17-.73-2.09-1.38-.38-1.36.81-13.52 11.64-6.85 5.19-2.32.59-1.38-.73-7.35-9.11-5.92-8.01-3.6-5.07-4.43-6.65-1.21-1.88-1.17-1.59-1.3-.22-1.22 1.09-.57 1.38.34 2.17 2.33 4.04 17.84 24.21 2.31 2.82.7 1.88-1.81 2.24-16.02 13.24-10.99 8.53-1.51 2.24v2.31l.57.57 1.75-.14 3.47-2.24 13.71-10.77 7.52-6.07 4.99-3.54 1.88-.66 1.38.52 3.45 4.04 13.95 17.14 3.83 4.33 10.47 12.13 30.75 33.4 1.46 1.31 5.4 5.49.52 1.52-.43.79-12.37 3.04-2.95.14-3.45-.87-5.12-.13-2.78-1.32-2.96-2.1-1.93-.57-3.49.36-7.52 2.83-3.59 1.95-1.74 1.88-6.93 8.96-2.62 1.88-3.23 1.81-3.26 3.61-1.27 2.88-.81 3.11.36 3.62 1.29 2.52 2.12 1.75 1.87.57 9.95-.64 1.17.57.52 1.52-2.83 9.04-.28 5.13-1.46 1.79-9.11 7.16-1.45.59-2.29-.36-5.37-2.11-5.32-1.22-3.85.15-2.74 1.3-2.16 2.97-5.03 9.82-1.69 1.67-2.09.34-4.11-1.5-2.31.35-4.84 2.54-1.95.79Z"/><path fill="#0067b1" d="m179.99 1148.18-3.33-.14-1.52-.88-.5-1.5.72-1.45 3.54-1.02 20.16-2.09 22.03-3.69 1.22-.86.22-1.95-2.6-7.89-7.36-18.86-7.59-16.12-4.69-9.32-5.06-11.34-1.38-1.31-1.36-.14-2.74.72-1.17-.58-.21-1.52 1.29-2.11 1.45-1.72.14-1.89-.21-2.38.8-1.45 1.44-.14 2.95 2.68 2.31-.36 14.46-8.39 11.55-6.14 33.74-19.66 26.42-15.48 3.48-2.59.5-1.66-1.15-3.54-5.21-9.33-9.23-14.47-3.03-4.83-5.21-8.16-.73-2.11.3-1.59 1.15-.72 1.36.29 3.04 3.61 9.97 14.32 9.74 16.26 3.11 5.71 1.88 1.89 2.03-.23 8.8-4.9 2.46-.23 1.25 1.37-.16 1.95-1.38 1.6-7.5 4.63-1.52 1.66-.36 2.31 1.65 3.76 11.2 20.82 2.62 5.78.43 2.74-.88 1.88-1 .5-1.31-.72-2.81-4.47-12.44-24.58-2.81-4.05-1.65-.23-5.71 2.62-7.73 4.7-5.64 3.11-2.74 1.88-2.47.93-28.37 16.41-38.22 21.52-1.22 1.32.22 2.31 9.68 19.29 5.91 13.1 4.7 11.27 7.58 21.97v1.89l-2.08 2.52-.95 3.03-2.45.87-25.78 3.83-16.04 1.74Z"/><path fill="#fff" d="m233.29 1145.15-1.8-.36-.58-1.16.29-1.45 1.23-.79 2.38-.59 2.53.15.64.8-.28 1.31-2.89 1.5-1.52.59Z"/><path fill="#0067b1" d="m362.88 1103.29-1.38-.58-.36-2.02.79-1.59 4.55-1.95 8.66-3.32 22.75-9.97 22.77-11.06 9.03-4.92h1.73l1.08 1.22.23 1.52-.88 1.31-5.78 3.47-27.52 13.45-19.49 8.66-14.46 5.42-1.72.36Z"/><path fill="#fff" d="m223.33 895.78-1.81-.94-.57-1.45-.28-63.75.66-1.59 2.08-.79h42.17l1.81.79.79 2.68-.12 9.09-.72 1.81-1.38.8h-25.77l-2.67.79-.79 2.25.1 5.42.72 1.58 2.68.8h19.93l1.59.79.66 1.81.07 10.57-.59 1.81-1.36.86-20.73.21-2.25.79-.79 2.02.23 6.51.77 1.38 1.83.57h25.85l2.45.79.66.95.07 11.27-.8 1.38-1.38.59-43.11.21Zm239.21-.87-12.25-.23-1.6-.71-.71-1.81-.17-48.2-.73-1.68-1.65-.72-14.16-.28-1.52-1.02-.57-2.08v-9.63l.57-1.14 2.47-.81 48.98-.21 2.95.79.79 1.02-.07 10.98-1.1 1.81-2.23.59-14.23.2-1.56.8-.61 1.58-.21 48.36-.72 1.59-1.67.8Zm47.46-.22-9.33-.05-1.81-.79-.71-1.96-.27-62.66.36-1.88 1.16-.8 11.43.05 2 .8.81 2.02.04 19.09.6 2.88 1.5.88 23.47.14 2.47-.8.71-1.95.13-21.47.75-1.09 2.01-.72h10.66l1.86.79.81 1.52.25 62.67-.66 2.17-1.36.8-12.21-.21-1.16-.81-.57-2.31-.07-19.73-.58-2.31-1.57-.8-25.35.06-.94.94-.5 2.52.18 20.4-.57 1.39-1.81 1.01-1.73.21Z"/><path fill="#fff" fill-rule="evenodd" d="m282.84 894.76-.36-.72 20.95-64.71 1.43-2.1 1.47-.57 16.66.17 2.24.79 1.31 1.87 25.79 63.27-.23 1.66-1.58.79-11.92.14-3.54-.8-1.31-1.67-3.57-10.58-1.7-1.14-23.55.02-2.15 1.07-3.33 10.49-1.09 1.61-2.86 1h-11.28l-1.38-.59Zm40.15-31.22-.34-1.66-7.16-19.31h-.79l-6.21 18.95-.66 1.85 1.14.86 12.9.1 1.12-.79Zm81.2 30.58-13.71-19.66-2.04-1.52-7.96.14-.57.65-.35 1.66.14 16.55-.5 1.82-2.02.93H365.7l-1.61-.8-.71-1.72-.24-62.93.87-2.04 1.81-.57 32.37-.03 6.16 1.02 4.38 1.72 4.05 2.84 3.47 4.03 2.38 5.22.81 4.03-.52 6.44-.95 3.76-2.16 4.2-3.67 4.55-4.05 3.25-.3 1.23 15.03 24.07-.28 1.16-1.59.57-14.76.22-2-.79Zm-6.93-38.16 2.31-1.97 1.14-2.16.43-3.62-1.14-3.25-2.95-2.38-4.28-1.02-11.04-.15-1.67.79-.58 1.66.08 11.15.57 1.36 2.04.81h11.03l1.31-.22 2.75-1Z"/><path fill="#fff" d="m359.18 808.39-1.79-.8-.59-1.81-.25-62.32.79-1.81 1.38-.57 10.86-.12 2.3.79.72 1.36.09 20.11.74 2.31 1.57.8h22.77l1.79-.59.88-1.52-.04-19.86.23-2.04 1.02-1 1.65-.36h11.06l2.24.79.72 2.61.16 60.99-.81 2.24-2.23.8-11.74-.09-1.59-.72-.58-1.68-.09-21.16-.88-1.36-2.67-.59h-21.44l-1.59.59-.79 1.81v20.16l-.81 2.24-2.68.8h-10.4Zm-35.75.21h-11.9l-1.81-.79-.59-1.38-.15-48.05-.75-1.88-2.44-.8-15.06.07-1.4-1.02-.57-2.74v-8.03l.8-1.81 1.81-.79 52.57-.21 1.96.57.86 1.88-.08 11.07-1.78 1.29-2.83.36-14.24-.2-1.37.58-.65 1.09-.07 48.48-.5 1.31-1.81 1Zm159.25-.59-40.73.17-2.23-.81-.72-2.16-.19-62.04.67-1.58 2-.79 40.79-.07 2.45.8.79 1.58-.15 10.29-.68 1.54-1.72.86-24.53.1-2.24.81-.57 1.16-.13 4.69.63 2.39 1.09.79 2.29.36 18.63-.2 2.04.79.72 1.73v11.25l-.95 1.52-2.02.7-19.71.04-1.81.79-.57 1.81.16 5.72 1 1.29 1.22.36h26.01l2 .8.6 1.59.05 12.13-1.38 1.22-2.81.37Zm-235.74-79.64-7.36-.36-6.94-1.52-4.91-1.95-6.87-4.33-4.55-4.35-3.67-5.56-2.81-7.16-1.38-6.64-.3-6.29 1.02-6.8 2.16-6.57 2.83-5.35 3.46-4.56 5.19-4.55 5.14-3.04 7.14-2.38 5.57-1.02 5.63-.21 9.46 1 8.09 2.4 2.95 1.73 1.04 1.45.43 1.69v12.04l-.86 1.45-1.25.28-8.36-4.11-7.38-1.67-5.42-.21-5.41.8-4.69 2.17-3.4 2.38-3.04 3.61-1.95 4.26-1.22 5.21.14 5.06 1.31 4.99 2.81 4.62 3.6 3.4 4.13 2.39 5.64 1.72 6.41.36 6.07-1 4.92-2.17 4.78-3.04 1.56-1 .95.21.66 1.27.14 11.38-.8 2.54-2.31 2.31-4.91 2.38-7.8 2.09-5.64.65Zm149.53-5.2-17.56-.07-1.36-.59-1.09-1.79-19.95-60.22-.36-3.03.72-.94 3.42-.84 9.29.26 2.02.58 1.31 2.45 13.5 44.46 1.02 1.16h1.31l.49-1.02 13.65-43.65 1.66-3.19 2.47-1.35 9.59.13 2.89.79.52 1.16-.71 3.46-20.38 61.02-1.16.86-1.29.36Zm39.43-.44-1.6-.57-1.49-1.93.05-62.55.57-1.38 1.18-.86 1.93-.36 40.75-.21 2.23.8.57 1.36-.04 9.96-.72 2.45-2.11.88-25.49.08-1.17.8-.5 1.66v5.93l.5 1.73 2.24.79 20.15.16 2.44.81.8 1.79.08 10.98-1.15.86-1.95.37H452.3l-1.59.58-.87 1.3.13 6.57.81 2.02 1.57.59 26.75.17 1.49.86.6 1.82v10.16l-.79 1.59-1.61.59-42.89.2Z"/><path fill="#fff" fill-rule="evenodd" d="m307.62 725.78-5.64-1.02-5.99-2.6-4.69-3.04-5.21-4.77-4.33-6.43-2.83-6.73-1.22-6.65V685l1.66-6.92 2.39-5.72 4.76-6.73 5.21-4.76 4.62-2.83 5.42-2.16 8.88-1.67 8.45.22 6.94 1.66 7.5 3.26 6.45 5.2 3.88 4.91 1.96 3.63 2.38 6.49 1.21 6.94v6.95l-1.21 7.44-2.38 6.14-3.91 6.22-3.67 3.9-4.71 3.26-5.85 2.81-6.71 1.95-5.78.8-7.58-.21Zm15.31-16.84 3.24-2.18 3.42-3.9 2.15-4.49 1.23-5.55-.07-5.79-1.38-5.64-3.04-4.92-4.1-3.9-4.42-2.38-5.41-1.02-4.33.22-4.98 1.45-4.26 2.61-3.4 3.68-2.61 4.62-1.22 5.65.22 6.71 1.44 4.69 2.82 4.92 3.68 3.25 3.76 2.17 5.64 1.52 5.2.16 1.07-.23 5.35-1.65Zm217.68 13.01-2.26-.88-9.64-16.41-1.88-2.38-2.54-.8h-6.26l-1.82.73-.73 1.59-.05 16.12-.79 1.38-1.38.57h-10.63l-2.22-.8-.66-1.45.04-63.6 1.15-1.02 2.38-.36h28.99l7.75.95 3.69 1.14 4.24 2.62 3.26 3.39 2.24 3.98 1.66 5.78.5 4.41-.29 5.05-1.73 4.92-2.15 3.63-2.97 3.02-4.35 3.26-.27 1.36 12.14 20.4.64 2.23-.8.95-1.45.36-13.81-.14Zm-11.33-35.86 3.64-1.02 2.72-2.09 1.52-2.54.59-4.1-1.04-2.97-1.71-1.88-2.69-1.3-15.07-.03-1.59.79-.57 1.37.13 10.95.56 2.02 1.61.8h11.9Z"/><path fill="#ef4135" d="m212.71 607.81-5.56-.37-5.34-1.72-4.35-3.4-1.95-2.82-1.72-3.76-1.45-6.57.14-6.51 1.74-8.25 2.17-5.26 6.05-9.98 6.51-7.16 4.05-3.7 11.76-8.45 13.8-7.37 13.95-5.63 19.63-4.78 10.35-1.45 14.29-.43 11.7 1.22 9.53 1.95 9.68 2.84 10.83 4.76 7.52 4.35 9.97 7.57 7.79 7.82 4.13 5.78.15 1.01-2.03-1.01-7.37-5.14-11.26-5.62-10.56-3.7-9.74-2.09-12.14-1.52-11.69.21-11.56 2.11-10.04 3.02-9.98 4.78-8.8 5.42-5.41 4.78-6.94 7.71-8.9 13.45-8.31 14.75-5.62 6.29-4.69 3.47-5.56 2.38-4.77 1.02Zm350.61-5.64-5.43-.14-4.71-1.31-6.41-4.12-16.03-14.31-11.33-9.91-5.81-4.62-5.19-4.27-12.43-8.45-7.73-4.11-12.49-5.21-10.69-2.39-10.54-1.22-6.91.21-8.54 1.65-10.69 3.49-2.32.86-.72-.29 1.95-2.09 4.78-3.26 11.05-5.85 9.88-4.13 15.25-4.1 9.23-1.68 9.55-1.07 16.68.43 12.14 1.44 12.63 2.81 9.19 3.49 8.22 3.9 7.73 4.98 10.4 8.67 6.28 6.87 4.57 7.59 2.45 5.92 1.41 5.71.16 6.3-1 5.27-1.73 4.19-3.19 4.26-4.33 2.83-5.33 1.66Z"/><path fill="#0067b1" d="m446.08 597.4-1.61-.37-1.7-2.31-2.68-4.99-3.48-4.76-3.81-3.26-5.78-3.02-4.78-1.24-4.33-.21-5.19.79-1.15-.29-.38-1.59.81-1.59 3.17-2.6 4.9-2.38 3.9-1.02 4.98-.23 5.57 1.25 4.12 2.52 2.97 3.03 2.16 3.4 1.38 4.63 1.29 13.24-.36 1Z"/><path fill="#ef4135" d="m368.29 543.19-2.24-1.66-6.59-6.44-9.74-8.02-9.88-6.94-10.99-5.42-10.4-3.69-13.3-3.25-9.45-1.22-4.98-.43-12.58.2-12.21 1.88-15.31 4.13-14.59 5.56-5.78 1.22-4.83-.36-4.19-1.5-2.97-2.38-1.51-2.47-.93-4.13.72-5.78 2.17-5.42 3.24-4.69 4.26-3.7 6.08-4.12 6.64-3.25 8.81-2.81 10.69-2.31 6.07-.66 12.76.23 13.1 2.31 11.34 3.9 15.73 7.8 12.37 8.03 10.61 8.02 11.91 11.7 6.73 8.03 7.14 11.2 2.24 4.85.16 1-.3.59Zm50.7-3.9-.57-.37 2.02-4.69 7.59-10.63 14.45-15.67 10.61-8.39 12.85-8.46 14-7.39 13.88-4.98 10.56-2.09 5.21-.66 10.83.23 6.35 1.22 4.55 1.95 4.33 2.75 3.03 3.1 2.16 3.83.81 3.4-.16 4.06-1.96 4.47-3.02 3.92-5.05 2.81-8.02 2.38-8.23.8-33.16 1.95-12.22 1.88-8.36 2.17-11.06 3.68-8.15 3.47-11.92 6.73-10.33 7.94-1.02.59Zm-5.2-11.71-.5-.3.21-3.1 3.28-13.29 4.31-13.81 6.95-15.62 7.79-14.31 5.19-7.3 9.33-10.41 4.02-3.9 6.75-5.21 6.91-4.33 8.61-3.47 5.21-1.24 7.79.22 4.49 1.45 3.81 2.97 2.17 2.74 1.38 4.2.29 4.47-1.24 3.83-2.83 4.26-4.96 4.78-7.8 4.99-11.49 5.85-10.19 5.06-7.59 4.99-15.09 11.27-9.31 9.11-6.07 7.52-6.73 10.71-3.74 6.86-.95 1.01Zm-43.99-.43-1.37-1.38-7-11.07-5.41-7.14-10.2-10.63-13.21-10.84-14.68-9.32-24.24-13.09-5.87-4.34-3.67-4.04-2.61-4.92-1.01-3.7.15-4.83 1.95-4.42 2.74-2.74 3.4-1.95 3.67-1 5.2-.23 6.95 1.45 9.02 4.34 8.6 5.41 11.76 10.34 8.82 9.62 9.76 13.23 5.85 10.12 4.55 10.4 3.9 12.29 3.03 12.59.36 4.76-.44 1.09Z"/><path fill="#fff" d="m341.41 346.73-1.79-.36-2.83-2.75-2.17-3.04-.57-2.08.14-3.84 1.08-4.98 6.73-15.62 8.66-14.9 14.54-21.04 16.88-19.93 7.38-7.89 10.4-10.34 16.46-14.3 22.88-17.35 16.49-10.2 17.11-9.53 13.66-5.86 9.02-1.87 3.38.57 3.64 3.04 1.27 2.24-.2 1.45-1.64 1.44-15.71 7.02-15.71 8.89-8.47 5.56-4.11 2.67-16.49 11.93-4.55 3.83-13.64 11.13-18.2 16.26-15.16 16.7-3.98 4.7-7.07 8.32-13.21 17.78-9.33 14.3-10.63 19.23-3.08 7.44-1.18 1.38Z"/><path fill="#fff" d="m318.44 335.24-2.81-.14-2.24-1.75-13.31-14.92 1.83-7.77-.21-3.18-1.16-2.24-6.93-8.03-12.78-14.3-30.13-32.54-32.08-34.69-12.12-13.67-4.06-4.17-2.38-3.63-.5-3.1.93-6.29 3.49-11.99 5.62-14.03 6.93-13.88 6.73-11.86 6.93-10.4 14.96-19.73 9.31-10.2 11.49-11.05 8.15-6.93 12.15-9.34 17.4-11.06L322 44.82l14.66-6.08 11.48-3.9 6.71-1.45 6.5-.22 3.61 1.02 2.53 1.95 12.35 13.44 3.69 4.26 12.4 13.88 7.09 7.89L433 108.28l6.21 6.35 3.55 4.26 27.96 29.93 2.44 1.52 2.4.29 5.4-1.01 3.26.15 2.24 1.52 4.54 4.92 2.69 3.45 2.96 3.47.35 1.88-1.22 3.19-2.18 5.34-1.88.88-8.6 2.67-18.77 8.46-11.47 6.28-27.45 18.21-13.66 10.85-17.84 16.04-15.29 15.39-11.15 13.17-7.07 8.89-11.05 15.26-11.06 17.77-5.62 10.48-3.48 7.89-2.23 6.78-.81.79-2.52.59-2.89.36-2.32.94Zm-28.38-3.25-1.36-.8-4.78-4.98-2.45-3.4-10.54-14.97-7.38-11.77-5.42-9.9-1.58-4.2-.07-.72 1.81.57 9.54 9.32 15.59 17.79 3.03 4.92.5 2.67-1.13 6.42.93 3.04 3.38 4.99-.07 1.02Z"/><path fill="#ef4135" d="m309.78 281.46-4.98-.14-5.55-1.51-6.07-3.27-6.01-4.76-7.79-8.25-9.09-11.84-6.3-10.49-3.32-8.24-1.88-7.09-.57-6.64.7-6.01 1.81-7.01 4.26-8.82-.2-2.15-3.69-5.79-8.37-10.85-4.21-6.06-8.15-10.7-1.59-3.26.52-2.68 3.46-5.99 3.02-4.26 1.81-.36 1.36.79 10.2 12.5 47.24 61.37 13.5 18 7.31 9.32 5.42 7.16.57 1.66-.14 2.09-6.28 10.56-4.78 5.85-3.82 3.25-4.26 2.4-4.13 1.22Z"/><path fill="#fff" d="m307.4 259.56-3.74-.14-4.56-1.97-4.34-3.46-5.42-5.86-8.23-11.49-3.24-6.14-1.96-5.92-.37-2.11.16-4.04 1.07-3.24.88-1.02h1.65l2.38 2.52 27.74 35.57 1.74 3.24-.23 1.39-1.43 1.65-2.1 1.02Z"/><path fill="#ef4135" d="m337.52 250.88-1.6-.79-15.88-28.41-17.48-30.29-21.45-39.02-16.02-30.29-.38-2.17 1.45-2.89 4.55-5.42 2.1-1.95 2.16-1.95 1.81-.51 1.88.94 5.62 5.42 3.47 3.68 42.34 44.25 7.14 7.08.79.14-.43-1.45-11.48-18.35-31.13-47.5-3.25-5.78v-2.31l2.38-2.97 7.8-5.85 3.33-1.36 1.58.27 7.14 5.87 4.13 4.04 63.07 60.35 25.78 24.51 1.43 2.25-.36 1.81-4.04 3.24-7.36 4.77-2.02.51-2.1-.95-3.9-3.83-13.07-13.44-6.23-6.15-5.19-5.62-3.9-4.06-20.8-21.76-11.48-12.5-2.4-1.29.65 1.95 3.26 5.56 12.27 19.29 14.81 23.87 6.87 10.41 6.14 9.75 7.93 12.36.6 2.31-1.01 2.02-9.54 8.9-1.59.8-1.67-.38-3.24-2.95-17.7-18.73-10.4-11.49-32.58-33.76-1.72-1.14-.16.79 1.95 4.2L322 191.19l24.91 44.3.94 3.11-1.1 2.24-7.21 8.82-2.02 1.22Z"/><path fill="#fff" d="m191.91 184.75-1.59-.59-3.47-4.04-1.01-2.53.22-4.77 1-5.21 4.35-12.56 5.41-12.29 8.23-14.67 13.36-19.75 3.11-4.62 6.64-7.73 5.05-6.29 2.11-2.17 11.78-12.58 5.62-5.42 4.71-3.97 6.12-5.35 15.54-11.5 16.02-9.75 15.68-8.45L325.67 24l12.42-3.9 8.09-1.45 3.62.14 2.09.88 4.12 4.04.72 1.58-.65.8-12.49 2.47-14.52 4.98-19.01 8.89-13.41 7.37-18.79 12.58-13.72 11.05-9.68 8.68-10.19 10.84-14.08 17.27-9.33 13.09-11.03 17.93-8.25 16.26-4.55 11.7-4.19 14.53-.93 1.02Z"/><path fill="#ef4135" d="m419.2 171.3-6.56-1.01-5.77-2.16-5.73-3.47-11.9-10.41-4.12-4.71-.52-1.36.74-1.45 3.17-2.18 7.73-4.1 1.95-.16 1.79 1.02 3.92 3.83 3.74 3.47 4.71 3.04 4.55 1.15 2.47-.5 1.84-1.45.75-2.67-1.16-3.26-3.67-4.27-4.07-3.47-8.64-5.42-11.21-5.42-19.65-8.31-17.99-8.89-10.53-7.15-5.64-5.57-4.33-5.85-2.38-5.85-1.02-5.35.36-4.99 1.3-4.4 2.81-4.35 3.84-3.47 4.62-2.18 6.58-1.43h6.93l5.41 1.23 7.51 3.03 9.9 6.51 7.38 6.71 1.58 2.61-.72 1.66-4.92 2.83-6.2 2.59-2.16.15-2.69-1.65-5.26-4.72-5.28-3.03-4.78-1.23-3.17.57-1.88 1.67-.86 2.32.21 2.6 1.51 2.89 3.83 3.9 7.37 4.98 8.53 4.56 4.04 1.52 1.95.72 2.1 1.23 19.87 8.32 10.4 5.19 10.31 6.3 6.51 5.2 4.77 4.99 4.11 5.85 2.24 4.78 1.45 5.85.14 4.62-.78 4.06-2.17 4.04-3.19 3.76-4.33 2.97-5.14 2.16-3.88.79-2.62.22Z"/><path fill="#fff" d="m495.92 137.26-2.02-1.45-4.12-3.61-2.74-1.22-3.11.36-2.31.71-2.52-.37-4.27-3.9-9.16-9.89-16.4-17.43-.81-1.79 2.32.36 10.97 6.71 14.52 10.64 11.7 10.4 7.59 8.46.63 1.66-.27.36Z"/><path fill="#0067b1" fill-rule="evenodd" d="M635.67 1402.2c17.83 0 32.39 14.54 32.39 32.4 0 17.88-14.56 32.41-32.39 32.41-17.87 0-32.39-14.53-32.39-32.41 0-17.86 14.52-32.4 32.39-32.4Zm0 57.63c12.81 0 23.06-10.25 23.06-25.23 0-14.91-10.25-25.23-23.06-25.23-13.01 0-23.06 10.32-23.06 25.23 0 14.98 10.05 25.23 23.06 25.23Zm.53-43.37c9.18 0 14.39 2.69 14.39 10.77 0 6.58-3.99 9.18-9.52 9.63l9.52 15.62h-7.92l-8.61-15.27h-3.69v15.27h-7.71v-36.02h13.54Zm6.64 10.08c0-3.69-3.95-4.14-6.98-4.14h-5.49v8.89h6.26c3.71 0 6.21-.63 6.21-4.75Z"/></svg>