<svg xmlns="http://www.w3.org/2000/svg" version="1.2" viewBox="0 0 1615 1616"><defs><clipPath id="a" clipPathUnits="userSpaceOnUse"><path d="M-2121.72-3175.94h5861.44v7967.88h-5861.44v-7967.88Z"/></clipPath></defs><g clip-path="url(#a)"><path fill="#ff3818" d="M0 1615.73h1614.18V.27H0v1615.46Z"/><path fill="#fff" fill-rule="evenodd" d="M1315.92 858.12c-78.81 0-136.41 56.47-136.41 136.05 0 79.99 57.24 136.11 136.41 136.11 79.63 0 136.46-56.12 136.46-136.11 0-79.58-57.24-136.05-136.46-136.05Zm0 238.78c-49.86 0-76.27-37.45-76.27-102.73 0-64.87 26.77-102.68 76.27-102.68 49.56 0 76.32 37.81 76.32 102.68 0 65.28-26.4 102.73-76.32 102.73Zm-275.77-90.97c0 7.32 1.07 12.1 4.02 17.96h43.66v64.92c-14.3 5.9-28.65 8.45-43.3 8.45-52.82 0-80.29-37.76-80.29-103.04s27.47-103.08 77.39-103.08c33.32 0 52.76 16.48 64.16 45.13l4.02 10.28h26.4v-65.69c-33.02-15.77-62.68-22.74-97.18-22.74-80.7 0-134.93 53.93-134.93 136.46 0 82.88 52.76 135.7 134.93 135.7 32.62 0 66.4-9.16 102.68-27.17V988.68h-97.54c-2.95 5.9-4.02 10.27-4.02 17.25Zm-159.56 88.78c-16.89 0-21.27-9.56-23.51-30.83l-1.42-13.59c-3.31-28.95-16.89-47.67-50.27-50.22v-1.12c33.02-1.47 67.11-23.45 67.11-64.87 0-41.82-34.09-67.87-86.55-67.87h-147.4v31.9h31.14v192.94h-50.63l-91.68-224.84h-48.8l-89.85 224.84h-25.65v31.9h97.19v-31.9h-30.79l16.84-45.9h95.35l16.9 45.9H528.5v31.9h230.69v-31.9h-34.86v-78.15h20.2c40.35 0 52.41 14.29 56.84 51.33l1.47 12.88c4.02 34.09 21.27 48.74 56.84 48.74 10.27 0 20.55-.71 28.59-1.83 2.19-4.02 3.31-8.8 3.31-15.01 0-6.26-1.12-11.04-3.31-15.06-2.19.35-4.78.76-7.68.76Zm-422.51-80.69L494 916.83l35.97 97.19h-71.89Zm309.55-33.38h-43.3v-82.53h43.3c32.97 0 49.51 14.3 49.51 41.06 0 26.41-16.89 41.47-49.51 41.47ZM329.3 898.11c24.57 0 33.02 10.63 41.11 41.47l2.54 9.87h26.41v-83.24H178.23v31.9h31.14v192.94h-31.14v31.9H300.7v-31.9h-36.68v-74.85h75.56c2.95-6.26 4.07-10.99 4.07-18.31 0-6.97-1.12-11.4-4.07-17.61h-75.56v-82.17h65.28Zm1114.28-235.83c0-40.35-24.57-68.23-70.77-78.87l-46.61-10.63c-27.12-6.26-38.47-16.89-38.47-34.85 0-21.63 17.2-35.21 50.94-35.21 33.78 0 53.57 12.11 61.26 40.7l3.3 12.47h26.41v-63.45c-29.71-15.01-61.26-22.74-93.16-22.74-62.69 0-103.03 30.07-103.03 78.5 0 37.4 23.45 64.93 68.58 74.8l46.56 10.28c29.71 6.61 40.7 18.31 40.7 37.8 0 23.81-17.96 37.04-53.88 37.04-40.7 0-61.62-16.18-70.78-46.96l-4.78-15.77h-26.4v71.89c33.37 16.49 65.27 23.81 108.17 23.81 61.61 0 101.96-30.78 101.96-78.81Zm-234.76-16.18h-26.36l-2.95 12.87c-7.32 32.62-17.6 42.89-41.82 42.89h-50.98V508.98h34.85v-31.91h-120.64v31.91h31.14v192.88h-31.14v31.91h207.9V646.1Zm-231.05 0h-26.41l-2.9 12.87c-7.37 32.62-17.6 42.89-41.82 42.89h-50.98V508.98h34.85v-31.91H769.82v31.91h31.19v192.88h-31.19v31.91h207.95V646.1Zm-695.38 87.67 53.52-186.33 52.1 186.33H439l64.16-224.79h50.62v192.88h-31.14v31.91h220.42V646.1h-26.41l-2.95 12.87c-7.33 32.62-17.96 42.89-41.82 42.89h-63.45v-79.57h73.72c2.96-6.26 4.02-10.99 4.02-18.37 0-6.92-1.06-11.35-4.02-17.56h-73.72v-77.38h60.9c24.58 0 32.97 10.63 41.06 41.41l2.6 9.92h26.41v-83.24H428.36v31.91h35.92L422.1 664.11l-52.45-187.04h-52.82L265.49 663.7 222.6 508.98h34.45v-31.91H137.53v31.91h29.31l64.56 224.79h50.99Z"/></g></svg>